<svg xmlns="http://www.w3.org/2000/svg" xmlns:xlink="http://www.w3.org/1999/xlink" xml:space="preserve" viewBox="0 0 161.2 43.2"><defs><path id="a" d="M.1 0h161.2v43.2H.1z"/></defs><clipPath id="b"><use xlink:href="#a" overflow="visible"/></clipPath><path fill="#94c11c" d="M59.1 27.6c0 9.2 6.6 15.6 16.2 15.6s16.2-6.4 16.2-15.6S84.9 12 75.3 12c-9.6.1-16.2 6.5-16.2 15.6m9 .1c0-4.5 2.9-7.6 7.3-7.6 4.3 0 7.1 3.1 7.1 7.6 0 4.6-2.8 7.7-7.1 7.7-4.4 0-7.3-3.2-7.3-7.7" clip-path="url(#b)"/><path fill="var(--logo-color)" d="m50.8 12.5-6.7 21.8-6.9-21.8h-9.8L38 42.8h12.1l10.5-30.3zm-50.4 0v7.2h14.2L.1 36.6v6.2h26v-7.3H11.5L25.9 19v-6.5z"/><path fill="#94c11c" d="M114.7 12.5v16.2l-13.8-16.2h-7.3v30.3h8.7v-16l14.1 16h6.9V12.5z"/><defs><path id="c" d="M.1 0h161.2v43.2H.1z"/></defs><clipPath id="d"><use xlink:href="#c" overflow="visible"/></clipPath><path fill="none" stroke="#94c11c" stroke-linecap="round" stroke-linejoin="round" stroke-miterlimit="10" stroke-width="6.6" d="m149.1 21.8 8.9-9.2-8.9-9.2m-14.9 18.4 8.9-9.2-8.9-9.2" clip-path="url(#d)"/></svg>